<svg baseProfile="full" height="28" version="1.1" viewBox="0 0 110 28" width="110" xmlns="http://www.w3.org/2000/svg" xmlns:ev="http://www.w3.org/2001/xml-events" xmlns:xlink="http://www.w3.org/1999/xlink"><defs /><g><path d="M28.879781420765028 16.75409836065574V23.065573770491802Q27.961748633879782 24.21311475409836 26.1448087431694 25.360655737704917Q24.327868852459016 26.508196721311474 21.784153005464482 27.25409836065574Q19.240437158469945 28.0 16.18032786885246 28.0Q11.819672131147541 28.0 8.568306010928962 26.297814207650273Q5.316939890710382 24.595628415300546 3.519125683060109 21.459016393442624Q1.7213114754098362 18.3224043715847 1.7213114754098362 14.03825136612022Q1.7213114754098362 9.754098360655739 3.5 6.6557377049180335Q5.278688524590164 3.557377049180328 8.587431693989071 1.8551912568306008Q11.896174863387978 0.1530054644808736 16.40983606557377 0.1530054644808736Q18.513661202185794 0.1530054644808736 20.50273224043716 0.4398907103825138Q22.491803278688526 0.726775956284154 24.174863387978142 1.1857923497267766Q25.85792349726776 1.6448087431693992 26.9672131147541 2.256830601092897L27.043715846994537 8.797814207650273H26.69945355191257Q25.972677595628415 6.196721311475411 24.595628415300546 4.647540983606557Q23.21857923497268 3.0983606557377037 21.401639344262296 2.4289617486338795Q19.584699453551913 1.7595628415300553 17.557377049180328 1.7595628415300553Q14.420765027322405 1.7595628415300553 12.278688524590164 3.2704918032786896Q10.136612021857923 4.781420765027324 9.046448087431694 7.57377049180328Q7.956284153005464 10.366120218579237 7.956284153005464 14.26775956284153Q7.956284153005464 17.939890710382514 8.969945355191257 20.674863387978142Q9.98360655737705 23.40983606557377 11.934426229508198 24.882513661202186Q13.885245901639344 26.3551912568306 16.6775956284153 26.393442622950822Q18.092896174863387 26.393442622950822 19.41256830601093 25.953551912568308Q20.73224043715847 25.513661202185794 21.726775956284154 24.672131147540984Q22.721311475409838 23.830601092896174 23.14207650273224 22.60655737704918L23.18032786885246 16.75409836065574Q23.18032786885246 15.032786885245901 21.229508196721312 15.032786885245901H20.617486338797814V14.650273224043715H31.366120218579237V15.032786885245901H30.792349726775956Q28.80327868852459 15.032786885245901 28.879781420765028 16.75409836065574Z M47.46994535519126 0.688524590163933Q51.983606557377044 0.688524590163933 55.27322404371584 2.3142076502732234Q58.56284153005464 3.939890710382514 60.34153005464481 6.942622950819672Q62.12021857923497 9.94535519125683 62.12021857923497 14.076502732240437Q62.12021857923497 18.207650273224044 60.34153005464481 21.2103825136612Q58.56284153005464 24.21311475409836 55.27322404371584 25.838797814207652Q51.983606557377044 27.46448087431694 47.46994535519126 27.46448087431694H38.36612021857923L38.32786885245902 25.85792349726776Q39.43715846994535 25.85792349726776 40.64207650273224 25.85792349726776Q41.84699453551912 25.85792349726776 42.97540983606557 25.85792349726776Q44.10382513661202 25.85792349726776 45.021857923497265 25.85792349726776Q45.939890710382514 25.85792349726776 46.47540983606557 25.85792349726776Q47.01092896174863 25.85792349726776 47.01092896174863 25.85792349726776Q49.76502732240437 25.85792349726776 51.75409836065573 24.423497267759565Q53.7431693989071 22.989071038251367 54.81420765027322 20.349726775956285Q55.885245901639344 17.7103825136612 55.885245901639344 14.076502732240437Q55.885245901639344 10.442622950819672 54.81420765027322 7.803278688524591Q53.7431693989071 5.16393442622951 51.75409836065573 3.729508196721312Q49.76502732240437 2.2950819672131146 47.01092896174863 2.2950819672131146Q47.01092896174863 2.2950819672131146 46.45628415300546 2.2950819672131146Q45.90163934426229 2.2950819672131146 44.94535519125683 2.2950819672131146Q43.98907103825137 2.2950819672131146 42.80327868852459 2.2950819672131146Q41.61748633879782 2.2950819672131146 40.3551912568306 2.2950819672131146Q39.092896174863384 2.2950819672131146 37.94535519125683 2.2950819672131146V0.688524590163933ZM42.26775956284153 0.688524590163933V27.46448087431694H36.53005464480874V0.688524590163933ZM36.6448087431694 24.672131147540984V27.46448087431694H33.58469945355191V27.081967213114755Q33.58469945355191 27.081967213114755 33.83333333333333 27.081967213114755Q34.08196721311475 27.081967213114755 34.08196721311475 27.081967213114755Q35.076502732240435 27.081967213114755 35.784153005464475 26.37431693989071Q36.49180327868852 25.666666666666668 36.53005464480874 24.672131147540984ZM36.6448087431694 3.4808743169398895H36.53005464480874Q36.53005464480874 2.4863387978142093 35.803278688524586 1.778688524590164Q35.076502732240435 1.0710382513661187 34.08196721311475 1.0710382513661187Q34.08196721311475 1.0710382513661187 33.85245901639344 1.0710382513661187Q33.62295081967213 1.0710382513661187 33.62295081967213 1.0710382513661187L33.58469945355191 0.688524590163933H36.6448087431694Z M73.93989071038251 0.688524590163933V27.46448087431694H68.20218579234972V0.688524590163933ZM84.03825136612022 25.81967213114754 84.95628415300547 27.46448087431694H73.82513661202185V25.81967213114754ZM82.62295081967213 13.46448087431694V15.07103825136612H73.82513661202185V13.46448087431694ZM84.49726775956285 0.688524590163933V2.333333333333332H73.82513661202185V0.688524590163933ZM86.83060109289617 19.66120218579235 85.07103825136612 27.46448087431694H77.57377049180327L78.95081967213115 25.81967213114754Q80.86338797814207 25.81967213114754 82.31693989071039 25.07377049180328Q83.77049180327869 24.327868852459016 84.80327868852459 22.931693989071036Q85.8360655737705 21.53551912568306 86.44808743169399 19.66120218579235ZM82.62295081967213 14.994535519125684V18.666666666666668H82.24043715846994V18.3224043715847Q82.24043715846994 16.94535519125683 81.3224043715847 16.027322404371585Q80.40437158469945 15.10928961748634 78.98907103825137 15.07103825136612V14.994535519125684ZM82.62295081967213 9.868852459016395V13.540983606557377H78.98907103825137V13.46448087431694Q80.40437158469945 13.426229508196721 81.3224043715847 12.489071038251367Q82.24043715846994 11.551912568306012 82.24043715846994 10.174863387978142V9.868852459016395ZM84.49726775956285 2.218579234972676V6.693989071038253H84.11475409836066V6.2349726775956285Q84.11475409836066 4.475409836065573 83.06284153005464 3.4043715846994527Q82.01092896174863 2.333333333333332 80.21311475409836 2.2950819672131146V2.218579234972676ZM84.49726775956285 0.0V1.1092896174863398L79.83060109289617 0.688524590163933Q80.67213114754098 0.688524590163933 81.60928961748634 0.5737704918032787Q82.5464480874317 0.45901639344262435 83.34972677595628 0.306010928961749Q84.15300546448087 0.1530054644808736 84.49726775956285 0.0ZM68.31693989071039 24.672131147540984V27.46448087431694H65.2568306010929V27.081967213114755Q65.2568306010929 27.081967213114755 65.50546448087431 27.081967213114755Q65.75409836065573 27.081967213114755 65.75409836065573 27.081967213114755Q66.74863387978142 27.081967213114755 67.45628415300547 26.37431693989071Q68.1639344262295 25.666666666666668 68.20218579234972 24.672131147540984ZM68.31693989071039 3.4808743169398895H68.20218579234972Q68.1639344262295 2.4863387978142093 67.45628415300547 1.778688524590164Q66.74863387978142 1.0710382513661187 65.75409836065573 1.0710382513661187Q65.75409836065573 1.0710382513661187 65.50546448087431 1.0710382513661187Q65.2568306010929 1.0710382513661187 65.2568306010929 1.0710382513661187V0.688524590163933H68.31693989071039Z M98.11475409836066 0.688524590163933V27.46448087431694H92.37704918032787V0.688524590163933ZM108.21311475409837 25.81967213114754 109.13114754098362 27.46448087431694H98.0V25.81967213114754ZM111.00546448087432 19.66120218579235 109.24590163934427 27.46448087431694H101.74863387978142L103.1256830601093 25.81967213114754Q105.03825136612022 25.81967213114754 106.49180327868854 25.07377049180328Q107.94535519125684 24.327868852459016 108.97814207650273 22.931693989071036Q110.01092896174865 21.53551912568306 110.62295081967214 19.66120218579235ZM92.49180327868854 24.672131147540984V27.46448087431694H89.43169398907105V27.081967213114755Q89.43169398907105 27.081967213114755 89.68032786885246 27.081967213114755Q89.92896174863388 27.081967213114755 89.92896174863388 27.081967213114755Q90.92349726775957 27.081967213114755 91.63114754098362 26.37431693989071Q92.33879781420765 25.666666666666668 92.37704918032787 24.672131147540984ZM92.49180327868854 3.4808743169398895H92.37704918032787Q92.33879781420765 2.4863387978142093 91.63114754098362 1.778688524590164Q90.92349726775957 1.0710382513661187 89.92896174863388 1.0710382513661187Q89.92896174863388 1.0710382513661187 89.68032786885246 1.0710382513661187Q89.43169398907105 1.0710382513661187 89.43169398907105 1.0710382513661187V0.688524590163933H92.49180327868854ZM98.0 3.4808743169398895V0.688524590163933H101.06010928961749V1.0710382513661187Q101.02185792349728 1.0710382513661187 100.79234972677597 1.0710382513661187Q100.56284153005465 1.0710382513661187 100.56284153005465 1.0710382513661187Q99.56830601092896 1.0710382513661187 98.86065573770492 1.778688524590164Q98.15300546448088 2.4863387978142093 98.11475409836066 3.4808743169398895Z " fill="rgb(0,0,0)" transform="translate(-1.7213114754098362, 0)" /></g></svg>